<svg xmlns="http://www.w3.org/2000/svg" viewBox="0 0 64 64"><path d="M52,5.91V58.09A3.91,3.91,0,0,1,48.09,62H46a1,1,0,0,1,0-2h2.09A1.92,1.92,0,0,0,50,58.09V54H18.92a1,1,0,0,1,0-2H50V5.91A1.92,1.92,0,0,0,48.09,4H33V6a1,1,0,1,1-2,0V4H15.91A1.92,1.92,0,0,0,14,5.91a1,1,0,0,1-2,0A3.91,3.91,0,0,1,15.91,2H48.09A3.91,3.91,0,0,1,52,5.91ZM43.24,60H15.91A1.92,1.92,0,0,1,14,58.09V54h2a1,1,0,1,0,0-2H14V8.62a1,1,0,0,0-2,0V58.09A3.91,3.91,0,0,0,15.91,62H43.24a1,1,0,1,0,0-2ZM21,48.15a1,1,0,0,0,1,1H42a1,1,0,0,0,1-1V45.93a1,1,0,0,0-2,0v1.22H23v-9a9,9,0,0,1,3.24-6.92A1,1,0,0,0,25,29.7a11,11,0,0,0-4,8.45ZM42,44a1,1,0,0,0,1-1V38.15a11,11,0,0,0-8.35-10.68,1,1,0,0,0-1,.3L32,29.62l-1.66-1.85a1,1,0,0,0-1-.3,10.53,10.53,0,0,0-1.84.63,1,1,0,0,0,.82,1.83,8.26,8.26,0,0,1,.94-.36l2,2.21a1,1,0,0,0,1.48,0l2-2.21A9,9,0,0,1,41,38.15V43A1,1,0,0,0,42,44ZM40,19a8,8,0,1,1-8-8A8,8,0,0,1,40,19Zm-2,0a6,6,0,1,0-6,6A6,6,0,0,0,38,19ZM32.62,34.65l1.48,8.89a1,1,0,0,1-.16.72l-1.48,2.22a1,1,0,0,1-.83.45,1,1,0,0,1-.83-.45l-1.48-2.22a1,1,0,0,1-.16-.72l1.48-8.89a1,1,0,0,1,2,0Zm-.56,8.83-.43-2.58-.43,2.58.43.64Zm2.08-28a1,1,0,0,0,0,1.41A3,3,0,0,1,35,19a1,1,0,0,0,2,0,5,5,0,0,0-1.44-3.51A1,1,0,0,0,34.14,15.48Zm-1.43-1.43A5.52,5.52,0,0,0,32,14a1,1,0,0,0,0,2,3,3,0,0,1,.43,0h.14a1,1,0,0,0,.14-2ZM34,57a2,2,0,1,0-2,2A2,2,0,0,0,34,57Z" data-name="candidate biography"/></svg>